<svg width="25" height="24" viewBox="0 0 25 24" fill="none" xmlns="http://www.w3.org/2000/svg">
<path d="M23 18C23 18.3978 22.842 18.7794 22.5607 19.0607C22.2794 19.342 21.8978 19.5 21.5 19.5H3.5C3.10218 19.5 2.72064 19.342 2.43934 19.0607C2.15804 18.7794 2 18.3978 2 18V9C2 8.60218 2.15804 8.22064 2.43934 7.93934C2.72064 7.65804 3.10218 7.5 3.5 7.5H5.258C6.45086 7.49935 7.59465 7.0251 8.438 6.1815L9.683 4.9395C9.9635 4.65891 10.3437 4.50088 10.7405 4.5H14.2565C14.6543 4.50008 15.0358 4.65818 15.317 4.9395L16.559 6.1815C16.9769 6.59957 17.4732 6.9312 18.0193 7.15743C18.5655 7.38366 19.1508 7.50007 19.742 7.5H21.5C21.8978 7.5 22.2794 7.65804 22.5607 7.93934C22.842 8.22064 23 8.60218 23 9V18ZM3.5 6C2.70435 6 1.94129 6.31607 1.37868 6.87868C0.816071 7.44129 0.5 8.20435 0.5 9L0.5 18C0.5 18.7956 0.816071 19.5587 1.37868 20.1213C1.94129 20.6839 2.70435 21 3.5 21H21.5C22.2956 21 23.0587 20.6839 23.6213 20.1213C24.1839 19.5587 24.5 18.7956 24.5 18V9C24.5 8.20435 24.1839 7.44129 23.6213 6.87868C23.0587 6.31607 22.2956 6 21.5 6H19.742C18.9464 5.99983 18.1835 5.68365 17.621 5.121L16.379 3.879C15.8165 3.31635 15.0536 3.00017 14.258 3H10.742C9.94642 3.00017 9.18348 3.31635 8.621 3.879L7.379 5.121C6.81652 5.68365 6.05358 5.99983 5.258 6H3.5Z" fill="#545454"/>
<path d="M12.5 16.5C11.5054 16.5 10.5516 16.1049 9.84835 15.4017C9.14509 14.6984 8.75 13.7446 8.75 12.75C8.75 11.7554 9.14509 10.8016 9.84835 10.0983C10.5516 9.39509 11.5054 9 12.5 9C13.4946 9 14.4484 9.39509 15.1517 10.0983C15.8549 10.8016 16.25 11.7554 16.25 12.75C16.25 13.7446 15.8549 14.6984 15.1517 15.4017C14.4484 16.1049 13.4946 16.5 12.5 16.5ZM12.5 18C13.8924 18 15.2277 17.4469 16.2123 16.4623C17.1969 15.4777 17.75 14.1424 17.75 12.75C17.75 11.3576 17.1969 10.0223 16.2123 9.03769C15.2277 8.05312 13.8924 7.5 12.5 7.5C11.1076 7.5 9.77226 8.05312 8.78769 9.03769C7.80312 10.0223 7.25 11.3576 7.25 12.75C7.25 14.1424 7.80312 15.4777 8.78769 16.4623C9.77226 17.4469 11.1076 18 12.5 18ZM5 9.75C5 9.94891 4.92098 10.1397 4.78033 10.2803C4.63968 10.421 4.44891 10.5 4.25 10.5C4.05109 10.5 3.86032 10.421 3.71967 10.2803C3.57902 10.1397 3.5 9.94891 3.5 9.75C3.5 9.55109 3.57902 9.36032 3.71967 9.21967C3.86032 9.07902 4.05109 9 4.25 9C4.44891 9 4.63968 9.07902 4.78033 9.21967C4.92098 9.36032 5 9.55109 5 9.75Z" fill="#545454"/>
</svg>
