<svg width="191" height="191" viewBox="0 0 191 191" fill="none" xmlns="http://www.w3.org/2000/svg">
<rect width="191" height="191" rx="64" fill="#E5E5E5"/>
<path d="M75.5 119.5C75.5 119.5 71.5 119.5 71.5 115.5C71.5 111.5 75.5 99.5 95.5 99.5C115.5 99.5 119.5 111.5 119.5 115.5C119.5 119.5 115.5 119.5 115.5 119.5H75.5ZM95.5 95.5C98.6826 95.5 101.735 94.2357 103.985 91.9853C106.236 89.7348 107.5 86.6826 107.5 83.5C107.5 80.3174 106.236 77.2652 103.985 75.0147C101.735 72.7643 98.6826 71.5 95.5 71.5C92.3174 71.5 89.2652 72.7643 87.0147 75.0147C84.7643 77.2652 83.5 80.3174 83.5 83.5C83.5 86.6826 84.7643 89.7348 87.0147 91.9853C89.2652 94.2357 92.3174 95.5 95.5 95.5Z" fill="white"/>
</svg>
