<svg width="24" height="24" viewBox="0 0 24 24" fill="none" xmlns="http://www.w3.org/2000/svg">
<path d="M0.75 14.8501C0.948912 14.8501 1.13968 14.9291 1.28033 15.0698C1.42098 15.2104 1.5 15.4012 1.5 15.6001V19.3501C1.5 19.7479 1.65804 20.1295 1.93934 20.4108C2.22064 20.6921 2.60218 20.8501 3 20.8501H21C21.3978 20.8501 21.7794 20.6921 22.0607 20.4108C22.342 20.1295 22.5 19.7479 22.5 19.3501V15.6001C22.5 15.4012 22.579 15.2104 22.7197 15.0698C22.8603 14.9291 23.0511 14.8501 23.25 14.8501C23.4489 14.8501 23.6397 14.9291 23.7803 15.0698C23.921 15.2104 24 15.4012 24 15.6001V19.3501C24 20.1457 23.6839 20.9088 23.1213 21.4714C22.5587 22.034 21.7956 22.3501 21 22.3501H3C2.20435 22.3501 1.44129 22.034 0.87868 21.4714C0.316071 20.9088 0 20.1457 0 19.3501V15.6001C0 15.4012 0.0790176 15.2104 0.21967 15.0698C0.360322 14.9291 0.551088 14.8501 0.75 14.8501Z" fill="#545454"/>
<path d="M11.469 1.71888C11.5386 1.64903 11.6214 1.59362 11.7125 1.55581C11.8036 1.518 11.9013 1.49854 12 1.49854C12.0986 1.49854 12.1963 1.518 12.2874 1.55581C12.3785 1.59362 12.4613 1.64903 12.531 1.71888L17.031 6.21888C17.1718 6.35971 17.2509 6.55071 17.2509 6.74988C17.2509 6.94904 17.1718 7.14005 17.031 7.28088C16.8901 7.42171 16.6991 7.50082 16.5 7.50082C16.3008 7.50082 16.1098 7.42171 15.969 7.28088L12.75 4.06038V17.2499C12.75 17.4488 12.671 17.6396 12.5303 17.7802C12.3896 17.9209 12.1989 17.9999 12 17.9999C11.8011 17.9999 11.6103 17.9209 11.4696 17.7802C11.329 17.6396 11.25 17.4488 11.25 17.2499V4.06038L8.03097 7.28088C7.96124 7.35061 7.87846 7.40592 7.78735 7.44366C7.69624 7.4814 7.59859 7.50082 7.49997 7.50082C7.40136 7.50082 7.3037 7.4814 7.2126 7.44366C7.12149 7.40592 7.0387 7.35061 6.96897 7.28088C6.89924 7.21114 6.84392 7.12836 6.80619 7.03725C6.76845 6.94614 6.74902 6.84849 6.74902 6.74988C6.74902 6.65126 6.76845 6.55361 6.80619 6.4625C6.84392 6.37139 6.89924 6.28861 6.96897 6.21888L11.469 1.71888Z" fill="#545454"/>
</svg>
