<svg fill="none" height="8" viewBox="0 0 8 8" width="8" xmlns="http://www.w3.org/2000/svg">
    <path
        d="M4.95862 0.608168C4.86229 0.423481 4.72284 0.269918 4.55446 0.163096C4.38609 0.0562726 4.19478 0 4 0C3.80522 0 3.61391 0.0562726 3.44553 0.163096C3.27716 0.269918 3.13771 0.423481 3.04138 0.608168L0.138195 6.25092C0.0460056 6.428 -0.00165365 6.6285 4.38083e-05 6.83214C0.00174126 7.03578 0.0527351 7.23531 0.147861 7.41052C0.244384 7.59129 0.382991 7.74102 0.549639 7.84453C0.716286 7.94805 0.905053 8.00167 1.09681 7.99996H6.90319C7.09495 8.00167 7.28371 7.94805 7.45036 7.84453C7.61701 7.74102 7.75561 7.59129 7.85214 7.41052C7.94726 7.23531 7.99826 7.03578 7.99996 6.83214C8.00165 6.6285 7.95399 6.428 7.8618 6.25092L4.95862 0.608168ZM4 6.54546C3.93408 6.54546 3.86963 6.52413 3.81482 6.48417C3.76 6.44422 3.71728 6.38743 3.69206 6.32098C3.66683 6.25454 3.66023 6.18143 3.67309 6.11089C3.68595 6.04035 3.71769 5.97556 3.76431 5.92471C3.81092 5.87385 3.87032 5.83922 3.93497 5.82519C3.99963 5.81116 4.06665 5.81836 4.12755 5.84588C4.18846 5.87341 4.24052 5.92001 4.27714 5.97981C4.31377 6.03961 4.33332 6.10991 4.33332 6.18183C4.33332 6.27827 4.2982 6.37076 4.23569 6.43895C4.17318 6.50715 4.0884 6.54546 4 6.54546ZM4.33332 4.72733C4.33332 4.82376 4.2982 4.91625 4.23569 4.98445C4.17318 5.05264 4.0884 5.09095 4 5.09095C3.9116 5.09095 3.82682 5.05264 3.76431 4.98445C3.7018 4.91625 3.66668 4.82376 3.66668 4.72733V2.54557C3.66668 2.44913 3.7018 2.35664 3.76431 2.28845C3.82682 2.22025 3.9116 2.18194 4 2.18194C4.0884 2.18194 4.17318 2.22025 4.23569 2.28845C4.2982 2.35664 4.33332 2.44913 4.33332 2.54557V4.72733Z"
        fill="#EF5350" />
</svg>
