<svg fill="none" height="8" viewBox="0 0 8 8" width="8" xmlns="http://www.w3.org/2000/svg">
    <path
        d="M4 0C3.20888 0 2.43552 0.234596 1.77772 0.674121C1.11992 1.11365 0.607234 1.73836 0.304484 2.46927C0.00173314 3.20017 -0.0774802 4.00444 0.0768607 4.78036C0.231202 5.55628 0.612164 6.26902 1.17157 6.82843C1.73098 7.38784 2.44372 7.7688 3.21964 7.92314C3.99556 8.07748 4.79983 7.99827 5.53073 7.69552C6.26164 7.39277 6.88635 6.88008 7.32588 6.22228C7.7654 5.56448 8 4.79112 8 4C7.99877 2.93951 7.57695 1.92281 6.82707 1.17293C6.07719 0.423047 5.06049 0.0012257 4 0ZM3.99996 1.84615C4.09125 1.84615 4.18048 1.87322 4.25638 1.92394C4.33228 1.97465 4.39144 2.04673 4.42637 2.13107C4.4613 2.2154 4.47044 2.3082 4.45263 2.39773C4.43482 2.48726 4.39087 2.5695 4.32632 2.63405C4.26177 2.6986 4.17953 2.74255 4.09 2.76036C4.00047 2.77817 3.90767 2.76903 3.82334 2.7341C3.739 2.69916 3.66692 2.64001 3.61621 2.56411C3.56549 2.48821 3.53842 2.39898 3.53842 2.30769C3.53842 2.24708 3.55036 2.18706 3.57356 2.13107C3.59675 2.07507 3.63075 2.02419 3.67361 1.98133C3.71646 1.93848 3.76734 1.90448 3.82334 1.88129C3.87934 1.85809 3.93935 1.84615 3.99996 1.84615H3.99996ZM4.30769 6.15384H4C3.95959 6.15387 3.91957 6.14592 3.88222 6.13047C3.84488 6.11502 3.81095 6.09235 3.78238 6.06378C3.7538 6.0352 3.73114 6.00127 3.71568 5.96393C3.70023 5.92659 3.69229 5.88657 3.69231 5.84615V4C3.6107 4 3.53244 3.96758 3.47474 3.90988C3.41703 3.85217 3.38462 3.77391 3.38462 3.69231C3.38462 3.6107 3.41703 3.53244 3.47474 3.47474C3.53244 3.41703 3.6107 3.38461 3.69231 3.38461H4C4.04041 3.38459 4.08044 3.39253 4.11778 3.40799C4.15512 3.42344 4.18905 3.44611 4.21762 3.47468C4.2462 3.50326 4.26886 3.53719 4.28432 3.57453C4.29977 3.61187 4.30772 3.65189 4.30769 3.69231V5.53846C4.3893 5.53846 4.46756 5.57088 4.52526 5.62858C4.58297 5.68628 4.61539 5.76455 4.61539 5.84615C4.61539 5.92776 4.58297 6.00602 4.52526 6.06372C4.46756 6.12143 4.3893 6.15384 4.30769 6.15384Z"
        fill="#999999" />
</svg>
